<svg width="35" height="17" xmlns="http://www.w3.org/2000/svg">
 <g>
  <title>Layer 1</title>
  <path d="m7.45614,14.5819c-4.10088,0 -7.45614,-3.2974 -7.45614,-7.32759c0,-3.9569 3.35526,-7.25431 7.45614,-7.25431c4.10086,0 7.45616,3.29741 7.45616,7.32759c-0.0746,4.03021 -3.3553,7.25431 -7.45616,7.25431zm0,-13.11638c-3.2807,0 -5.96491,2.63793 -5.96491,5.86207c0,3.22411 2.68421,5.86211 5.96491,5.86211c3.28066,0 5.96496,-2.638 5.96496,-5.86211c-0.0746,-3.22414 -2.6843,-5.86207 -5.96496,-5.86207z" fill="black" id="svg_1"/>
  <path d="m3.28077,7.3276l-0.74561,0c0,-2.63793 2.23684,-4.83621 4.92105,-4.83621l0,0.73276c-2.3114,0 -4.17544,1.8319 -4.17544,4.10345z" fill="black" id="svg_2"/>
  <path d="m16.2543,17c-0.2237,0 -0.3728,-0.0733 -0.5219,-0.2198l-4.1755,-4.1035c-0.2982,-0.2931 -0.2982,-0.7327 0,-1.0258c0.2983,-0.2931 0.7456,-0.2931 1.0439,0l4.1754,4.1034c0.2983,0.2931 0.2983,0.7328 0,1.0259c-0.0745,0.1465 -0.2982,0.2198 -0.5219,0.2198z" fill="black" id="svg_3"/>
  <line fill="none" stroke="black" stroke-width="null" stroke-dasharray="null" stroke-opacity="null" opacity="undefined" x1="90" y1="45" x2="89" y2="45" id="svg_4" stroke-linejoin="null" stroke-linecap="null"/>
  <line stroke-linecap="undefined" stroke-linejoin="undefined" id="svg_6" y2="18.32903" x2="33.14099" y1="-0.64528" x1="33.14099" opacity="0.5" stroke-opacity="null" stroke-dasharray="null" stroke-width="2" stroke="#000" fill="none"/>
 </g>

</svg>